<svg width="918" height="280" viewBox="0 0 918 280" fill="none" xmlns="http://www.w3.org/2000/svg">
<path d="M744.102 138.761C744.102 121.905 747.413 106.955 754.035 93.9118C760.857 80.8685 769.988 70.8352 781.426 63.8119C793.064 56.7885 806.007 53.2768 820.255 53.2768C832.696 53.2768 843.532 55.7852 852.763 60.8018C862.194 65.8185 869.719 72.1395 875.338 79.7648V52.9858H917.779V225.74H875.338V198.359C869.92 206.185 862.395 212.707 852.763 217.924C843.331 222.941 832.395 225.449 819.954 225.449C805.907 225.449 793.064 221.837 781.426 214.613C769.988 207.389 760.857 197.255 754.035 184.212C747.413 170.968 744.102 155.818 744.102 138.761ZM875.338 139.363C875.338 129.129 873.331 120.4 869.318 113.176C865.304 105.751 859.886 100.133 853.064 96.3198C846.241 92.3065 838.917 90.2998 831.091 90.2998C823.265 90.2998 816.041 92.2062 809.419 96.0188C802.797 99.8315 797.379 105.45 793.165 112.875C789.151 120.099 787.145 128.728 787.145 138.761C787.145 148.794 789.151 157.624 793.165 165.249C797.379 172.674 802.797 178.393 809.419 182.406C816.241 186.419 823.465 188.426 831.091 188.426C838.917 188.426 846.241 186.52 853.064 182.707C859.886 178.693 865.304 173.075 869.318 165.851C873.331 158.426 875.338 149.597 875.338 139.363Z" fill="white"/>
<path d="M666.912 53.578C679.554 53.578 690.791 56.3873 700.624 62.006C710.457 67.424 718.082 75.551 723.5 86.387C729.119 97.0223 731.928 109.865 731.928 124.915V224.74H689.788V130.634C689.788 117.39 686.477 107.256 679.855 100.233C673.233 93.009 664.203 89.397 652.765 89.397C641.126 89.397 631.896 93.009 625.073 100.233C618.451 107.256 615.14 117.39 615.14 130.634V224.74H573V0H615.14V76.755C620.558 69.531 627.782 63.9123 636.812 59.899C645.842 55.685 655.875 53.578 666.912 53.578Z" fill="white"/>
<path d="M430.202 80.0658C435.621 72.4405 443.045 66.1195 452.477 61.1029C462.109 55.8855 473.045 53.2768 485.286 53.2768C499.533 53.2768 512.376 56.7885 523.814 63.8119C535.452 70.8352 544.583 80.8685 551.205 93.9118C558.027 106.755 561.439 121.704 561.439 138.761C561.439 155.818 558.027 170.968 551.205 184.212C544.583 197.255 535.452 207.389 523.814 214.613C512.376 221.837 499.533 225.449 485.286 225.449C473.045 225.449 462.209 222.941 452.778 217.924C443.547 212.907 436.022 206.586 430.202 198.961V279.204H388.062V52.9858H430.202V80.0658ZM518.396 138.761C518.396 128.728 516.289 120.099 512.075 112.875C508.061 105.45 502.643 99.8315 495.821 96.0188C489.199 92.2062 481.975 90.2998 474.149 90.2998C466.523 90.2998 459.299 92.3065 452.477 96.3198C445.855 100.133 440.437 105.751 436.223 113.176C432.209 120.601 430.202 129.33 430.202 139.363C430.202 149.396 432.209 158.125 436.223 165.55C440.437 172.975 445.855 178.693 452.477 182.707C459.299 186.52 466.523 188.426 474.149 188.426C481.975 188.426 489.199 186.419 495.821 182.406C502.643 178.393 508.061 172.674 512.075 165.249C516.289 157.824 518.396 148.995 518.396 138.761Z" fill="white"/>
<path d="M337.146 224.74L299.767 166.832L265.854 224.74H226.743L281.202 138.001L226 52.7402H265.854L303.233 110.402L336.898 52.7402H376.01L321.798 139.233L377 224.74H337.146Z" fill="white"/>
<path d="M139.341 167.228H74.3368L47.3053 227H0L80.7729 56.4658L107.536 0L133.227 56.4658L214 227H166.373L139.341 167.228ZM139.341 167.228L106.839 95.9887L74.3368 167.228H139.341Z" fill="#CCFF00"/>
</svg>
